# xmcd
#
# Track frame offsets:
# 150
# 14287
# 28238
# 42123
# 55310
# 67955
# 82513
# 95568
# 106910
# 118530
# 131370
# 144095
# 158895
# 172043
# 187335
# 202320
# 215773
# 229471
# 241543
# 253653
# 266428
# 278343
# 291401
# 302844
# 315704
# 328165
# 340597
#
# Disc length: 4693 seconds
#
#
# Revision: 0
# Processed by: cddbd v1.5.1PL0 Copyright (c) Steve Scherf et al.
# Submitted via: FreeRIP 2.60 
#
DISCID=8812531b
DTITLE=Gene Autry - Don't Fence Me In
DYEAR=2004
DGENRE=Western
TTITLE0=Yodelling Hobo
TTITLE1=Bear Cat Mama from Horner's Corner
TTITLE2=She's a Low Down Mama
TTITLE3=In the Jailhouse Now #2
TTITLE4=Any Old Time
TTITLE5=Mexicali Rose
TTITLE6=South of the Border
TTITLE7=You Are My Sunshine
TTITLE8=When the Swallows Come Back to Capistrano
TTITLE9=Have I Told You Lately that I Love You
TTITLE10=Goodbye Little Darlin' Goodbye
TTITLE11=Blue Hawaii
TTITLE12=That Silver Haired Daddy of Mine
TTITLE13=Tumbling Tumbleweeds
TTITLE14=The Last Round-up
TTITLE15=Texas Plains
TTITLE16=Guns and Guitars
TTITLE17=Blueberry Hill
TTITLE18=Back in the Saddle Again
TTITLE19=Down in the Land of Zulu
TTITLE20=Someday in Wyoming
TTITLE21=Dear Old Western Skies
TTITLE22=It's Round-up Time in Reno
TTITLE23=Little Old Band of Gol;d
TTITLE24=It Makes No Difference Now
TTITLE25=Deep in the Heart of Texas
TTITLE26=Don't Fence Me In
EXTD=
EXTT0=
EXTT1=
EXTT2=
EXTT3=
EXTT4=
EXTT5=
EXTT6=
EXTT7=
EXTT8=
EXTT9=
EXTT10=
EXTT11=
EXTT12=
EXTT13=
EXTT14=
EXTT15=
EXTT16=
EXTT17=
EXTT18=
EXTT19=
EXTT20=
EXTT21=
EXTT22=
EXTT23=
EXTT24=
EXTT25=
EXTT26=
PLAYORDER=
